<svg xmlns="http://www.w3.org/2000/svg" xmlns:xlink="http://www.w3.org/1999/xlink" xmlns:lucid="lucid" width="2060.9" height="1280"><g transform="translate(220.90477362204723 -20)" lucid:page-tab-id="0_0"><path d="M-198.9 46a6 6 0 0 1 6-6h308a6 6 0 0 1 6 6v1228a6 6 0 0 1-6 6h-308a6 6 0 0 1-6-6z" fill="#fff" fill-opacity="0"/><path d="M-175.14 40h11.85m11.86 0h11.84m11.85 0h11.84m11.84 0h11.85m11.83 0h11.85m11.85 0h11.84m11.85 0h11.84m11.85 0H2.57m11.84 0h11.85m11.84 0h11.84m11.85 0h11.83m11.85 0h11.85m11.84 0h5.92l.93.07.92.22.87.35.8.5.72.6.6.72.5.8.36.88.22.9.08.95v6.02m0 12.04V76.1m0 12.04v12.04m0 12.04v12.03m0 12.04v12.03m0 12.04v12.04m0 12.05v12.04m0 12.03v12.04m0 12.04v12.05m0 12.04v12.03m0 12.03v12.04m0 12.04v12.04m0 12.04v12.04m0 12.04v12.04m0 12.04v12.04m0 12.04v12.04m0 12.04v12.03m0 12.04v12.05m0 12.04v12.03m0 12.04v12.04m0 12.05v12.04m0 12.03v12.04m0 12.04v12.04m0 12.04v12.04m0 12.04v12.04m0 12.04v12.04m0 12.04v12.04m0 12.04v12.04m0 12.04v12.04m0 12.03v12.04m0 12.03v12.04m0 12.04v12.05m0 12.04v12.03m0 12.04v12.04m0 12.05v12.04m0 12.02v12.04m0 12.04v12.04m0 12.04v12.04m0 12.04V967m0 12.04v12.04m0 12.04v12.04m0 12.04v12.03m0 12.05v12.03m0 12.05v12.04m0 12.03v12.04m0 12.04v12.05m0 12.04v12.03m0 12.04v12.04m0 12.04v12.04m0 12.04v12.04m0 12.04v12.04m0 12.04v6.02l-.08.94-.22.9-.36.88-.5.8-.6.72-.72.6-.8.5-.87.37-.92.23-.94.07h-5.93m-11.84 0H85.48m-11.85 0H61.8m-11.86 0H38.1m-11.85 0H14.4m-11.84 0H-9.3m-11.84 0h-11.84m-11.85 0h-11.84m-11.85 0h-11.85m-11.84 0h-11.86m-11.84 0h-11.85m-11.85 0h-11.84m-11.85 0h-11.84m-11.84 0h-5.93l-.94-.07-.92-.22-.87-.35-.8-.5-.72-.6-.6-.72-.5-.8-.36-.88-.23-.9-.07-.95v-6.02m0-12.04v-12.04m0-12.04v-12.04m0-12.04v-12.04m0-12.03v-12.03m0-12.04v-12.04m0-12.05v-12.04m0-12.03v-12.04m0-12.04v-12.05m0-12.04v-12.02m0-12.05v-12.03m0-12.04v-12.04m0-12.04v-12.04m0-12.04v-12.04m0-12.04v-12.04m0-12.04V906.8m0-12.03v-12.04m0-12.04v-12.05m0-12.04v-12.03m0-12.04V810.5m0-12.05V786.4m0-12.03v-12.04m0-12.04v-12.04m0-12.04v-12.04m0-12.04V690.1m0-12.04v-12.04m0-12.04v-12.04m0-12.04v-12.04m0-12.04v-12.04m0-12.03V569.7m0-12.03v-12.04m0-12.04v-12.05m0-12.04v-12.03m0-12.04V473.4m0-12.05V449.3m0-12.03v-12.03m0-12.04v-12.04m0-12.04v-12.04m0-12.04V353m0-12.04v-12.04m0-12.04v-12.04m0-12.04v-12.04m0-12.03V256.7m0-12.05V232.6m0-12.03v-12.04m0-12.04v-12.05m0-12.04v-12.03m0-12.04V136.3m0-12.05v-12.03m0-12.04V88.14m0-12.04V64.06m0-12.04V46l.07-.94.22-.9.35-.88.5-.8.6-.72.72-.6.8-.5.87-.37.92-.23.94-.07h5.92" stroke="#147eba" stroke-width="3" fill="none"/><use xlink:href="#a" transform="matrix(1,0,0,1,-198.90477362204723,60) translate(0 26.844444444444434)"/><use xlink:href="#b" transform="matrix(1,0,0,1,-198.90477362204723,60) translate(37.283950617283935 26.844444444444434)"/><path d="M240 46a6 6 0 0 1 6-6h1568a6 6 0 0 1 6 6v1228a6 6 0 0 1-6 6H246a6 6 0 0 1-6-6z" fill="#fff" fill-opacity="0"/><path d="M264.1 40h12.05m12.06 0h12.08m12.06 0h12.06m12.06 0h12.06m12.06 0h12.07m12.06 0h12.07m12.06 0h12.06m12.05 0H445m12.08 0h12.06m12.06 0h12.06m12.06 0h12.06m12.07 0h12.06m12.07 0h12.06m12.06 0h12.05m12.07 0h12.06m12.06 0H638m12.06 0h12.06m12.06 0h12.07m12.06 0h12.07m12.06 0h12.06m12.05 0h12.07m12.06 0h12.06m12.06 0h12.06m12.06 0H831m12.05 0h12.06m12.07 0h12.06m12.06 0h12.05m12.06 0h12.08m12.06 0h12.06m12.06 0h12.06m12.06 0h12.07m12.06 0h12.07m12.06 0h12.06m12.05 0h12.06m12.08 0h12.06m12.06 0h12.06m12.06 0h12.07m12.05 0h12.06m12.07 0h12.06m12.06 0h12.05m12.07 0h12.06m12.06 0h12.06m12.06 0h12.06m12.07 0h12.05m12.06 0h12.07m12.06 0h12.06m12.05 0h12.07m12.06 0h12.06m12.06 0h12.06m12.06 0h12.07m12.05 0h12.06m12.07 0h12.06m12.06 0h12.05m12.07 0h12.06m12.06 0h12.06m12.06 0h12.06m12.06 0h12.07m12.06 0h12.07m12.06 0h12.06m12.05 0h12.07m12.06 0h12.06m12.06 0h12.06m12.06 0h12.07m12.05 0h12.06m12.07 0h6.03l.94.07.9.22.88.35.8.5.72.6.6.72.5.8.37.88.23.9.07.95v6.02m0 12.04V76.1m0 12.04v12.04m0 12.04v12.03m0 12.04v12.03m0 12.04v12.04m0 12.05v12.04m0 12.03v12.04m0 12.04v12.05m0 12.04v12.03m0 12.03v12.04m0 12.04v12.04m0 12.04v12.04m0 12.04v12.04m0 12.04v12.04m0 12.04v12.04m0 12.04v12.03m0 12.04v12.05m0 12.04v12.03m0 12.04v12.04m0 12.05v12.04m0 12.03v12.04m0 12.04v12.04m0 12.04v12.04m0 12.04v12.04m0 12.04v12.04m0 12.04v12.04m0 12.04v12.04m0 12.04v12.04m0 12.03v12.04m0 12.03v12.04m0 12.04v12.05m0 12.04v12.03m0 12.04v12.04m0 12.05v12.04m0 12.02v12.04m0 12.04v12.04m0 12.04v12.04m0 12.04V967m0 12.04v12.04m0 12.04v12.04m0 12.04v12.03m0 12.05v12.03m0 12.05v12.04m0 12.03v12.04m0 12.04v12.05m0 12.04v12.03m0 12.04v12.04m0 12.04v12.04m0 12.04v12.04m0 12.04v12.04m0 12.04v6.02l-.07.94-.22.9-.35.88-.5.8-.6.72-.72.6-.8.5-.88.37-.9.23-.95.07h-6.03m-12.06 0h-12.05m-12.06 0h-12.08m-12.06 0h-12.06m-12.06 0h-12.06m-12.07 0h-12.05m-12.06 0h-12.07m-12.06 0h-12.06m-12.05 0h-12.07m-12.06 0h-12.06m-12.06 0h-12.06m-12.06 0h-12.07m-12.05 0h-12.06m-12.07 0h-12.06m-12.06 0h-12.05m-12.07 0h-12.06m-12.06 0H1422m-12.06 0h-12.06m-12.07 0h-12.05m-12.06 0h-12.07m-12.06 0h-12.06m-12.05 0h-12.07m-12.06 0h-12.06m-12.06 0h-12.06m-12.06 0h-12.06m-12.07 0h-12.06m-12.07 0h-12.06m-12.06 0h-12.05m-12.07 0h-12.06m-12.06 0h-12.06m-12.06 0h-12.06m-12.07 0h-12.05m-12.06 0h-12.07m-12.06 0h-12.06m-12.05 0h-12.07m-12.06 0h-12.06m-12.06 0h-12.06m-12.06 0H915.4m-12.05 0H891.3m-12.07 0h-12.06m-12.06 0h-12.05m-12.06 0H818.9m-12.06 0H794.8m-12.06 0h-12.06m-12.06 0h-12.07m-12.06 0h-12.07m-12.06 0H698.3m-12.05 0h-12.07m-12.06 0h-12.06m-12.06 0h-12.06m-12.06 0h-12.06m-12.07 0H577.7m-12.07 0h-12.06m-12.06 0h-12.05m-12.07 0h-12.06m-12.06 0H481.2m-12.06 0h-12.06m-12.06 0h-12.07m-12.06 0h-12.07m-12.06 0H384.7m-12.05 0H360.6m-12.08 0h-12.06m-12.06 0h-12.06m-12.06 0h-12.06m-12.07 0H264.1m-12.07 0H246l-.94-.07-.9-.22-.88-.35-.8-.5-.72-.6-.6-.72-.5-.8-.37-.88-.23-.9-.07-.95v-6.02m0-12.04v-12.04m0-12.04v-12.04m0-12.04v-12.04m0-12.03v-12.03m0-12.04v-12.04m0-12.05v-12.04m0-12.03v-12.04m0-12.04v-12.05m0-12.04v-12.02m0-12.05v-12.03m0-12.04v-12.04m0-12.04v-12.04m0-12.04v-12.04m0-12.04v-12.04m0-12.04V906.8m0-12.03v-12.04m0-12.04v-12.05m0-12.04v-12.03m0-12.04V810.5m0-12.05V786.4m0-12.03v-12.04m0-12.04v-12.04m0-12.04v-12.04m0-12.04V690.1m0-12.04v-12.04m0-12.04v-12.04m0-12.04v-12.04m0-12.04v-12.04m0-12.03V569.7m0-12.03v-12.04m0-12.04v-12.05m0-12.04v-12.03m0-12.04V473.4m0-12.05V449.3m0-12.03v-12.03m0-12.04v-12.04m0-12.04v-12.04m0-12.04V353m0-12.04v-12.04m0-12.04v-12.04m0-12.04v-12.04m0-12.03V256.7m0-12.05V232.6m0-12.03v-12.04m0-12.04v-12.05m0-12.04v-12.03m0-12.04V136.3m0-12.05v-12.03m0-12.04V88.14m0-12.04V64.06m0-12.04V46l.07-.94.22-.9.35-.88.5-.8.6-.72.72-.6.8-.5.88-.37.9-.23.95-.07h6.03" stroke="#147eba" stroke-width="3" fill="none"/><use xlink:href="#c" transform="matrix(1,0,0,1,240,60) translate(0 30.399999999999984)"/><use xlink:href="#d" transform="matrix(1,0,0,1,240,60) translate(52.77777777777775 30.399999999999984)"/><path d="M459.88 678.26v17.23c0 2-1.56 3.53-3.48 3.53H343.48c-1.92 0-3.48-1.53-3.48-3.54v-17.24c0-1.9 1.56-3.42 3.48-3.42H456.4c1.92 0 3.48 1.53 3.48 3.42zM340 633.18v-17.22c0-2 1.56-3.54 3.48-3.54H456.4c1.92 0 3.48 1.53 3.48 3.54v17.22c0 1.9-1.56 3.43-3.48 3.43H343.48c-1.92 0-3.48-1.53-3.48-3.42zm119.88 76.47v17.23c0 2-1.56 3.54-3.48 3.54H343.48c-1.92 0-3.48-1.54-3.48-3.54v-17.23c0-1.9 1.56-3.42 3.48-3.42H456.4c1.92 0 3.48 1.53 3.48 3.42zM460 647v17.22c0 2-1.56 3.54-3.48 3.54H343.6c-1.92 0-3.48-1.53-3.48-3.54V647c0-1.9 1.56-3.43 3.48-3.43h112.92c1.92 0 3.48 1.53 3.48 3.42zm-114.6 46.48h109.08v-13.2H345.4zm0 31.5h109.08v-13.33H345.4zm0-93.8h109.08v-13.33H345.4zm.12 31.15H454.6V649H345.52zm4.44-4v-5.44h64.56v5.42zm0 62.53v-5.43h64.56v5.43zm45.12-31.03v-5.55h54.84v5.55zm0-62.55v-5.42h54.84v5.42z" stroke="#000" stroke-opacity="0" fill="#232f3d"/><path d="M340.04 615.9v111.15H459.8V615.9z" stroke="#000" stroke-opacity="0" fill-opacity="0"/><use xlink:href="#e" transform="matrix(1,0,0,1,310,739.4173228346456) translate(35.9388888888889 19.73333333333333)"/><use xlink:href="#f" transform="matrix(1,0,0,1,310,739.4173228346456) translate(82.53148148148148 19.73333333333333)"/><path d="M920 87.42a6 6 0 0 1 6-6h428a6 6 0 0 1 6 6v208a6 6 0 0 1-6 6H926a6 6 0 0 1-6-6z" fill="#fff" fill-opacity="0"/><path d="M943.83 81.42h11.9m11.88 0h11.9m11.9 0h11.88m11.9 0h11.88m11.88 0h11.9m11.88 0h11.9m11.88 0h11.9m11.88 0h11.9m11.88 0h11.88m11.9 0h11.88m11.9 0h11.88m11.9 0h11.88m11.9 0h11.88m11.88 0h11.9m11.88 0h11.9m11.88 0h11.9m11.88 0h11.9m11.88 0h5.94l.94.07.9.2.88.37.8.5.72.6.6.72.5.8.37.86.23.92.07.94v5.77m0 11.55v11.56m0 11.56v11.56m0 11.55v11.56m0 11.55v11.56m0 11.56v11.55m0 11.56v11.56m0 11.56v11.55m0 11.56v11.55m0 11.56v5.78l-.07.94-.22.9-.35.88-.5.8-.6.72-.72.6-.8.5-.88.36-.9.22-.95.08h-5.94m-11.9 0h-11.88m-11.9 0h-11.88m-11.9 0h-11.88m-11.9 0h-11.88m-11.88 0h-11.9m-11.88 0h-11.9m-11.88 0h-11.9m-11.88 0h-11.9m-11.88 0h-11.88m-11.9 0h-11.88m-11.9 0h-11.88m-11.9 0h-11.88m-11.9 0h-11.88m-11.88 0h-11.9m-11.88 0h-11.9m-11.88 0h-11.9m-11.88 0h-11.9m-11.88 0H926l-.94-.08-.9-.22-.88-.36-.8-.5-.72-.6-.6-.72-.5-.8-.37-.87-.23-.9-.07-.95v-5.78m0-11.56v-11.55m0-11.56v-11.55m0-11.56V220.3m0-11.55V197.2m0-11.56v-11.56m0-11.55v-11.56m0-11.55v-11.56m0-11.55v-11.55m0-11.56V87.4l.07-.94.22-.92.35-.87.5-.8.6-.73.72-.6.8-.5.88-.36.9-.2.95-.08h5.94" stroke="#5a6c86" stroke-width="3" fill="none"/><path d="M920 327.42a6 6 0 0 1 6-6h428a6 6 0 0 1 6 6v208a6 6 0 0 1-6 6H926a6 6 0 0 1-6-6z" fill="#fff" fill-opacity="0"/><path d="M943.83 321.42h11.9m11.88 0h11.9m11.9 0h11.88m11.9 0h11.88m11.88 0h11.9m11.88 0h11.9m11.88 0h11.9m11.88 0h11.9m11.88 0h11.88m11.9 0h11.88m11.9 0h11.88m11.9 0h11.88m11.9 0h11.88m11.88 0h11.9m11.88 0h11.9m11.88 0h11.9m11.88 0h11.9m11.88 0h5.94l.94.07.9.2.88.37.8.5.72.6.6.72.5.8.37.86.23.92.07.94v5.77m0 11.55v11.56m0 11.56v11.56m0 11.55v11.56m0 11.55v11.56m0 11.56v11.55m0 11.56v11.56m0 11.56v11.55m0 11.56v11.55m0 11.56v5.78l-.07.94-.22.9-.35.88-.5.8-.6.72-.72.6-.8.5-.88.36-.9.22-.95.08h-5.94m-11.9 0h-11.88m-11.9 0h-11.88m-11.9 0h-11.88m-11.9 0h-11.88m-11.88 0h-11.9m-11.88 0h-11.9m-11.88 0h-11.9m-11.88 0h-11.9m-11.88 0h-11.88m-11.9 0h-11.88m-11.9 0h-11.88m-11.9 0h-11.88m-11.9 0h-11.88m-11.88 0h-11.9m-11.88 0h-11.9m-11.88 0h-11.9m-11.88 0h-11.9m-11.88 0H926l-.94-.08-.9-.22-.88-.36-.8-.5-.72-.6-.6-.72-.5-.8-.37-.87-.23-.9-.07-.95v-5.78m0-11.56v-11.55m0-11.56v-11.55m0-11.56V460.3m0-11.55V437.2m0-11.56v-11.56m0-11.55v-11.56m0-11.55v-11.56m0-11.55v-11.55m0-11.56v-5.78l.07-.94.22-.92.35-.87.5-.8.6-.72.72-.62.8-.5.88-.35.9-.2.95-.08h5.94" stroke="#5a6c86" stroke-width="3" fill="none"/><path d="M920 567.42a6 6 0 0 1 6-6h428a6 6 0 0 1 6 6v208a6 6 0 0 1-6 6H926a6 6 0 0 1-6-6z" fill="#fff" fill-opacity="0"/><path d="M943.83 561.42h11.9m11.88 0h11.9m11.9 0h11.88m11.9 0h11.88m11.88 0h11.9m11.88 0h11.9m11.88 0h11.9m11.88 0h11.9m11.88 0h11.88m11.9 0h11.88m11.9 0h11.88m11.9 0h11.88m11.9 0h11.88m11.88 0h11.9m11.88 0h11.9m11.88 0h11.9m11.88 0h11.9m11.88 0h5.94l.94.07.9.2.88.37.8.5.72.6.6.72.5.8.37.86.23.92.07.94v5.78m0 11.55v11.56m0 11.56v11.56m0 11.55v11.56m0 11.55v11.56m0 11.56v11.55m0 11.56v11.56m0 11.56v11.55m0 11.56v11.55m0 11.56v5.78l-.07.94-.22.9-.35.88-.5.8-.6.72-.72.6-.8.5-.88.36-.9.22-.95.08h-5.94m-11.9 0h-11.88m-11.9 0h-11.88m-11.9 0h-11.88m-11.9 0h-11.88m-11.88 0h-11.9m-11.88 0h-11.9m-11.88 0h-11.9m-11.88 0h-11.9m-11.88 0h-11.88m-11.9 0h-11.88m-11.9 0h-11.88m-11.9 0h-11.88m-11.9 0h-11.88m-11.88 0h-11.9m-11.88 0h-11.9m-11.88 0h-11.9m-11.88 0h-11.9m-11.88 0H926l-.94-.08-.9-.22-.88-.36-.8-.5-.72-.6-.6-.72-.5-.8-.37-.87-.23-.9-.07-.95v-5.78m0-11.56v-11.55m0-11.56v-11.55m0-11.56V700.3m0-11.55V677.2m0-11.56v-11.56m0-11.55v-11.56m0-11.55v-11.56m0-11.55v-11.55m0-11.55v-5.78l.07-.94.22-.92.35-.87.5-.8.6-.73.72-.6.8-.5.88-.36.9-.2.95-.08h5.94" stroke="#5a6c86" stroke-width="3" fill="none"/><path d="M920 807.42a6 6 0 0 1 6-6h428a6 6 0 0 1 6 6v208a6 6 0 0 1-6 6H926a6 6 0 0 1-6-6z" fill="#fff" fill-opacity="0"/><path d="M943.83 801.42h11.9m11.88 0h11.9m11.9 0h11.88m11.9 0h11.88m11.88 0h11.9m11.88 0h11.9m11.88 0h11.9m11.88 0h11.9m11.88 0h11.88m11.9 0h11.88m11.9 0h11.88m11.9 0h11.88m11.9 0h11.88m11.88 0h11.9m11.88 0h11.9m11.88 0h11.9m11.88 0h11.9m11.88 0h5.94l.94.07.9.2.88.37.8.5.72.6.6.72.5.8.37.86.23.92.07.94v5.78m0 11.55v11.56m0 11.56v11.56m0 11.55v11.56m0 11.55v11.56m0 11.56v11.55m0 11.56v11.56m0 11.56v11.55m0 11.56v11.55m0 11.56v5.78l-.07.94-.22.9-.35.88-.5.8-.6.72-.72.6-.8.5-.88.36-.9.22-.95.08h-5.94m-11.9 0h-11.88m-11.9 0h-11.88m-11.9 0h-11.88m-11.9 0h-11.88m-11.88 0h-11.9m-11.88 0h-11.9m-11.88 0h-11.9m-11.88 0h-11.9m-11.88 0h-11.88m-11.9 0h-11.88m-11.9 0h-11.88m-11.9 0h-11.88m-11.9 0h-11.88m-11.88 0h-11.9m-11.88 0h-11.9m-11.88 0h-11.9m-11.88 0h-11.9m-11.88 0H926l-.94-.08-.9-.22-.88-.36-.8-.5-.72-.6-.6-.72-.5-.8-.37-.87-.23-.9-.07-.95v-5.78m0-11.56v-11.55m0-11.56v-11.55m0-11.56V940.3m0-11.55V917.2m0-11.56v-11.56m0-11.55v-11.56m0-11.55v-11.56m0-11.55v-11.55m0-11.55v-5.78l.07-.94.22-.92.35-.87.5-.8.6-.73.72-.6.8-.5.88-.36.9-.2.95-.08h5.94" stroke="#5a6c86" stroke-width="3" fill="none"/><path d="M920 1047.42a6 6 0 0 1 6-6h428a6 6 0 0 1 6 6V1254a6 6 0 0 1-6 6H926a6 6 0 0 1-6-6z" fill="#fff" fill-opacity="0"/><path d="M943.83 1041.42h11.9m11.88 0h11.9m11.9 0h11.88m11.9 0h11.88m11.88 0h11.9m11.88 0h11.9m11.88 0h11.9m11.88 0h11.9m11.88 0h11.88m11.9 0h11.88m11.9 0h11.88m11.9 0h11.88m11.9 0h11.88m11.88 0h11.9m11.88 0h11.9m11.88 0h11.9m11.88 0h11.9m11.88 0h5.94l.94.07.9.2.88.37.8.5.72.6.6.72.5.8.37.86.23.92.07.94v5.74m0 11.47v11.48m0 11.5v11.46m0 11.48v11.48m0 11.47v11.47m0 11.48v11.47m0 11.48v11.48m0 11.47v11.48m0 11.48v11.5m0 11.46v5.74l-.07.94-.22.9-.35.88-.5.8-.6.72-.72.6-.8.5-.88.37-.9.23-.95.07h-5.94m-11.9 0h-11.88m-11.9 0h-11.88m-11.9 0h-11.88m-11.9 0h-11.88m-11.88 0h-11.9m-11.88 0h-11.9m-11.88 0h-11.9m-11.88 0h-11.9m-11.88 0h-11.88m-11.9 0h-11.88m-11.9 0h-11.88m-11.9 0h-11.88m-11.9 0h-11.88m-11.88 0h-11.9m-11.88 0h-11.9m-11.88 0h-11.9m-11.88 0h-11.9m-11.88 0H926l-.94-.07-.9-.22-.88-.35-.8-.5-.72-.6-.6-.72-.5-.8-.37-.88-.23-.9-.07-.95v-5.74m0-11.47v-11.5m0-11.47v-11.48m0-11.47v-11.48m0-11.48v-11.47m0-11.48v-11.48m0-11.48v-11.48m0-11.48v-11.47m0-11.5v-11.47m0-11.47v-5.74l.07-.94.22-.92.35-.87.5-.8.6-.73.72-.6.8-.5.88-.36.9-.2.95-.08h5.94" stroke="#5a6c86" stroke-width="3" fill="none"/><path d="M1264.23 352.42v5.9c0 2.72-7.6 7.16-21.96 9.7-8.06 1.4-16.1 2.07-24.26 2.05-29.9 0-46.4-7.73-46.4-11.68v-5.98c0 3.95 16.3 11.7 46.4 11.7 8.62.04 15.85-.54 24.37-2 14.26-2.64 21.86-7 21.86-9.7z" fill="#d1b079"/><path d="M1276 399.27v5.2c-.8 32.18-27.5 57.55-59.5 56.68-30.98-.86-55.7-25.62-56.5-56.68v-5.2h116z" fill-opacity="0"/><path d="M1263.84 353.5v6c-1.57 2.62-9 6.33-21.6 8.5-7.97 1.42-16.13 2.08-24.3 2.08-29.93 0-46.34-7.74-46.34-11.66v-6c0 3.93 16.32 11.66 46.35 11.66 8.63.1 15.95-.54 24.4-1.96 12.7-2.18 20-5.88 21.68-8.6m.1 87.72c.08-.22.18-.43.18-.76v9.92l-.1.43c-.08.1-.17.33-.26.55v.1l-.28.33-.37.56-.38.44-.65.43-.56.44-.64.54-.74.34-.93.54-.75.44-1.3.55-.74.32c-.73.32-1.47.54-2.3.86l-.84.22-1.85.55-1.2.32-1.76.44-1.4.32-1.94.43-1.57.22-2.14.44-1.77.22-2.4.22-1.77.22-2.87.22-1.87.22-3.24.1h-6.97c-16.87 0-29.57-2.06-38-4.8-6.12-2.17-10.57-4.57-11.04-6.3v-9.5c.46 1.75 4.35 3.93 9.82 6l-.1-.54c13.36 4.14 25.22 5.88 39.22 5.88h6.95l3.33-.1 1.76-.12 2.77-.32 1.77-.1 2.5-.34 1.58-.22 2.3-.32 10.58-2.62c.84-.33 1.67-.55 2.4-.87l2.05-.87.47-.33 1.3-.65.46-.33.92-.55.38-.32.74-.66.27-.22.55-.65v-.44l.37-.86z" fill="#d1b079"/><path d="M1218 341.42c8.16-.07 16.3.6 24.37 1.98 14.26 2.55 21.86 6.98 21.86 9.74 0 2.78-7.6 7.08-21.96 9.64-8.06 1.36-16.1 2.04-24.26 2-29.9 0-46.4-7.74-46.4-11.7 0-3.96 16.4-11.66 46.4-11.66z" fill="#ffdda6"/><path d="M1241.67 372.2c-1.3.3-2.5.38-3.8.65-.64 0-1.3.2-2.03.28l-3.53.37c-.82 0-1.66.18-2.4.18-1.58.1-3.06.2-4.63.28h-.84c-1.85 0-3.7.1-5.65.18h-1.2c-18.37 0-36.9-3.22-45.9-9.3v80.3c.46 1.83 4.9 4.22 11.03 6.34 8.26 2.66 21.06 4.78 37.93 4.78 30.87.1 43.76-7.45 43.76-11.5V364.3c-4.83 3.3-12.62 6.16-22.73 7.9z" fill="#ffdda6"/><use xlink:href="#g" transform="matrix(1,0,0,1,1160,461.4173228346456) translate(33.99691358024691 19.555555555555557)"/><use xlink:href="#h" transform="matrix(1,0,0,1,1160,461.4173228346456) translate(5.75 48.88888888888889)"/><path d="M1264.23 592.42v5.92c0 2.7-7.6 7.14-21.96 9.7-8.06 1.38-16.1 2.05-24.26 2.03-29.9 0-46.4-7.73-46.4-11.68v-5.98c0 3.96 16.3 11.7 46.4 11.7 8.62.04 15.85-.54 24.37-2 14.26-2.64 21.86-7 21.86-9.7z" fill="#269731"/><path d="M1276 639.27v5.2c-.8 32.18-27.5 57.55-59.5 56.68-30.98-.86-55.7-25.62-56.5-56.68v-5.2h116z" fill-opacity="0"/><path d="M1263.84 593.5v6c-1.57 2.62-9 6.33-21.6 8.5-7.97 1.42-16.13 2.08-24.3 2.08-29.93 0-46.34-7.74-46.34-11.67v-5.98c0 3.93 16.32 11.66 46.35 11.66 8.63.1 15.95-.54 24.4-1.96 12.7-2.18 20-5.88 21.68-8.6m.1 87.72c.08-.22.18-.43.18-.76v9.92l-.1.43c-.08.1-.17.33-.26.55v.1l-.28.34-.37.54-.38.44-.65.43-.56.44-.64.54-.74.34-.93.54-.75.44-1.3.55-.74.32c-.73.32-1.47.54-2.3.86l-.84.22-1.85.55-1.2.32-1.76.44-1.4.32-1.94.43-1.57.22-2.14.44-1.77.22-2.4.22-1.77.22-2.87.22-1.87.22-3.24.1h-6.97c-16.87 0-29.57-2.06-38-4.8-6.12-2.17-10.57-4.57-11.04-6.3v-9.5c.46 1.75 4.35 3.93 9.82 6l-.1-.54c13.36 4.14 25.22 5.88 39.22 5.88h6.95l3.33-.1 1.76-.12 2.77-.32 1.77-.1 2.5-.34 1.58-.22 2.3-.32 10.58-2.62c.84-.33 1.67-.54 2.4-.87l2.05-.87.47-.33 1.3-.65.46-.33.92-.55.38-.32.74-.66.27-.2.55-.67v-.43l.37-.88z" fill="#269731"/><path d="M1218 581.42c8.16-.07 16.3.6 24.37 1.98 14.26 2.55 21.86 6.98 21.86 9.74 0 2.78-7.6 7.08-21.96 9.64-8.06 1.36-16.1 2.04-24.26 2-29.9 0-46.4-7.74-46.4-11.7 0-3.96 16.4-11.66 46.4-11.66z" fill="#54c45e"/><path d="M1241.67 612.2c-1.3.28-2.5.38-3.8.65-.64 0-1.3.2-2.03.28l-3.53.37c-.82 0-1.66.18-2.4.18-1.58.1-3.06.2-4.63.28h-.84c-1.85 0-3.7.1-5.65.18h-1.2c-18.37 0-36.9-3.22-45.9-9.3v80.3c.46 1.83 4.9 4.22 11.03 6.34 8.26 2.66 21.06 4.78 37.93 4.78 30.87.1 43.76-7.45 43.76-11.5V604.3c-4.83 3.3-12.62 6.16-22.73 7.9z" fill="#54c45e"/><use xlink:href="#i" transform="matrix(1,0,0,1,1160,701.4173228346456) translate(3.7469135802469182 19.555555555555557)"/><use xlink:href="#h" transform="matrix(1,0,0,1,1160,701.4173228346456) translate(5.75 48.88888888888889)"/><path d="M1264.23 832.42v5.92c0 2.7-7.6 7.14-21.96 9.7-8.06 1.38-16.1 2.05-24.26 2.03-29.9 0-46.4-7.73-46.4-11.68v-5.98c0 3.96 16.3 11.7 46.4 11.7 8.62.04 15.85-.54 24.37-2 14.26-2.64 21.86-7 21.86-9.7z" fill="#ba0000"/><path d="M1276 879.27v5.2c-.8 32.18-27.5 57.55-59.5 56.68-30.98-.86-55.7-25.62-56.5-56.68v-5.2h116z" fill-opacity="0"/><path d="M1263.84 833.5v6c-1.57 2.62-9 6.33-21.6 8.5-7.97 1.42-16.13 2.08-24.3 2.08-29.93 0-46.34-7.74-46.34-11.67v-5.98c0 3.93 16.32 11.66 46.35 11.66 8.63.1 15.95-.54 24.4-1.96 12.7-2.18 20-5.88 21.68-8.6m.1 87.72c.08-.22.18-.43.18-.76v9.92l-.1.43c-.08.1-.17.33-.26.55v.1l-.28.34-.37.54-.38.44-.65.43-.56.44-.64.54-.74.34-.93.54-.75.44-1.3.55-.74.32c-.73.32-1.47.54-2.3.86l-.84.22-1.85.55-1.2.32-1.76.44-1.4.32-1.94.43-1.57.22-2.14.44-1.77.22-2.4.22-1.77.22-2.87.22-1.87.22-3.24.1h-6.97c-16.87 0-29.57-2.06-38-4.8-6.12-2.17-10.57-4.57-11.04-6.3v-9.5c.46 1.75 4.35 3.93 9.82 6l-.1-.54c13.36 4.14 25.22 5.88 39.22 5.88h6.95l3.33-.1 1.76-.12 2.77-.32 1.77-.1 2.5-.34 1.58-.22 2.3-.32 10.58-2.62c.84-.33 1.67-.54 2.4-.87l2.05-.87.47-.33 1.3-.65.46-.33.92-.55.38-.32.74-.66.27-.2.55-.67v-.43l.37-.88z" fill="#ba0000"/><path d="M1218 821.42c8.16-.07 16.3.6 24.37 1.98 14.26 2.55 21.86 6.98 21.86 9.74 0 2.78-7.6 7.08-21.96 9.64-8.06 1.36-16.1 2.04-24.26 2-29.9 0-46.4-7.74-46.4-11.7 0-3.96 16.4-11.66 46.4-11.66z" fill="#e81313"/><path d="M1241.67 852.2c-1.3.28-2.5.38-3.8.65-.64 0-1.3.2-2.03.28l-3.53.37c-.82 0-1.66.18-2.4.18-1.58.1-3.06.2-4.63.28h-.84c-1.85 0-3.7.1-5.65.18h-1.2c-18.37 0-36.9-3.22-45.9-9.3v80.3c.46 1.83 4.9 4.22 11.03 6.34 8.26 2.66 21.06 4.78 37.93 4.78 30.87.1 43.76-7.45 43.76-11.5V844.3c-4.83 3.3-12.62 6.16-22.73 7.9z" fill="#e81313"/><use xlink:href="#j" transform="matrix(1,0,0,1,1160,941.4173228346456) translate(26.833333333333336 19.555555555555557)"/><use xlink:href="#h" transform="matrix(1,0,0,1,1160,941.4173228346456) translate(5.75 48.88888888888889)"/><path d="M1264.23 1072.42v5.9c0 2.72-7.6 7.16-21.96 9.7-8.06 1.4-16.1 2.07-24.26 2.05-29.9 0-46.4-7.73-46.4-11.68v-5.98c0 3.95 16.3 11.7 46.4 11.7 8.62.04 15.85-.54 24.37-2 14.26-2.64 21.86-7 21.86-9.7z" fill="#3f84d2"/><path d="M1276 1119.27v5.2c-.8 32.18-27.5 57.55-59.5 56.68-30.98-.86-55.7-25.62-56.5-56.68v-5.2h116z" fill-opacity="0"/><path d="M1263.84 1073.5v6c-1.57 2.62-9 6.33-21.6 8.5-7.97 1.42-16.13 2.08-24.3 2.08-29.93 0-46.34-7.74-46.34-11.66v-6c0 3.92 16.32 11.66 46.35 11.66 8.63.1 15.95-.54 24.4-1.96 12.7-2.18 20-5.88 21.68-8.6m.1 87.72c.08-.2.18-.43.18-.76v9.92l-.1.43c-.08.1-.17.33-.26.55v.1l-.28.34-.37.54-.38.44-.65.43-.56.44-.64.54-.74.34-.93.54-.75.44-1.3.55-.74.32c-.73.32-1.47.54-2.3.86l-.84.22-1.85.55-1.2.32-1.76.44-1.4.32-1.94.43-1.57.22-2.14.44-1.77.22-2.4.22-1.77.22-2.87.22-1.87.22-3.24.1h-6.97c-16.87 0-29.57-2.07-38-4.8-6.12-2.17-10.57-4.57-11.04-6.3v-9.5c.46 1.75 4.35 3.93 9.82 6l-.1-.54c13.36 4.14 25.22 5.88 39.22 5.88h6.95l3.33-.1 1.76-.12 2.77-.32 1.77-.1 2.5-.34 1.58-.22 2.3-.32 10.58-2.62c.84-.33 1.67-.55 2.4-.87l2.05-.87.47-.33 1.3-.65.46-.33.92-.55.38-.32.74-.66.27-.22.55-.65v-.43l.37-.88z" fill="#3f84d2"/><path d="M1218 1061.42c8.16-.07 16.3.6 24.37 1.98 14.26 2.55 21.86 6.98 21.86 9.74 0 2.78-7.6 7.08-21.96 9.64-8.06 1.36-16.1 2.04-24.26 2-29.9 0-46.4-7.74-46.4-11.7 0-3.96 16.4-11.66 46.4-11.66z" fill="#6db1ff"/><path d="M1241.67 1092.2c-1.3.28-2.5.38-3.8.65-.64 0-1.3.2-2.03.28l-3.53.37c-.82 0-1.66.18-2.4.18l-4.63.28h-.84c-1.85 0-3.7.1-5.65.18h-1.2c-18.37 0-36.9-3.22-45.9-9.3v80.3c.46 1.83 4.9 4.22 11.03 6.34 8.26 2.66 21.06 4.78 37.93 4.78 30.87.1 43.76-7.45 43.76-11.5v-80.46c-4.83 3.3-12.62 6.16-22.73 7.9z" fill="#6db1ff"/><use xlink:href="#k" transform="matrix(1,0,0,1,1160,1181.4173228346456) translate(-8.067901234567884 19.555555555555557)"/><use xlink:href="#h" transform="matrix(1,0,0,1,1160,1181.4173228346456) translate(5.75 48.88888888888889)"/><path d="M1264.23 112.42v5.9c0 2.72-7.6 7.16-21.96 9.7-8.06 1.4-16.1 2.07-24.26 2.05-29.9 0-46.4-7.73-46.4-11.68v-5.98c0 3.95 16.3 11.7 46.4 11.7 8.62.04 15.85-.54 24.37-2 14.26-2.64 21.86-7 21.86-9.7z" fill="#d1b079"/><path d="M1276 159.27v5.2c-.8 32.18-27.5 57.55-59.5 56.68-30.98-.86-55.7-25.62-56.5-56.68v-5.2h116z" fill-opacity="0"/><path d="M1263.84 113.5v6c-1.57 2.62-9 6.33-21.6 8.5-7.97 1.42-16.13 2.08-24.3 2.08-29.93 0-46.34-7.74-46.34-11.67v-5.98c0 3.92 16.32 11.66 46.35 11.66 8.63.1 15.95-.54 24.4-1.96 12.7-2.18 20-5.88 21.68-8.6m.1 87.72c.08-.22.18-.43.18-.76v9.92l-.1.43c-.08.1-.17.33-.26.55v.1l-.28.34-.37.54-.38.44-.65.43-.56.44-.64.54-.74.34-.93.54-.75.44-1.3.54-.74.33c-.73.32-1.47.54-2.3.86l-.84.22-1.85.55-1.2.32-1.76.44-1.4.32-1.94.43-1.57.22-2.14.44-1.77.22-2.4.22-1.77.22-2.87.22-1.87.22-3.24.1h-6.97c-16.87 0-29.57-2.06-38-4.8-6.12-2.17-10.57-4.57-11.04-6.3v-9.5c.46 1.75 4.35 3.93 9.82 6l-.1-.54c13.36 4.14 25.22 5.88 39.22 5.88h6.95l3.33-.1 1.76-.12 2.77-.32 1.77-.1 2.5-.34 1.58-.22 2.3-.32 10.58-2.62c.84-.33 1.67-.54 2.4-.87l2.05-.87.47-.33 1.3-.65.46-.33.92-.55.38-.32.74-.66.27-.2.55-.67v-.44l.37-.86z" fill="#d1b079"/><path d="M1218 101.42c8.16-.07 16.3.6 24.37 1.98 14.26 2.55 21.86 6.98 21.86 9.74 0 2.78-7.6 7.08-21.96 9.64-8.06 1.36-16.1 2.04-24.26 2-29.9 0-46.4-7.74-46.4-11.7 0-3.96 16.4-11.66 46.4-11.66z" fill="#ffdda6"/><path d="M1241.67 132.2c-1.3.3-2.5.38-3.8.65-.64 0-1.3.2-2.03.28l-3.53.37c-.82 0-1.66.18-2.4.18-1.58.1-3.06.2-4.63.28h-.84c-1.85 0-3.7.1-5.65.18h-1.2c-18.37 0-36.9-3.22-45.9-9.3v80.3c.46 1.83 4.9 4.22 11.03 6.34 8.26 2.66 21.06 4.78 37.93 4.78 30.87.1 43.76-7.45 43.76-11.5V124.3c-4.83 3.3-12.62 6.16-22.73 7.9z" fill="#ffdda6"/><use xlink:href="#g" transform="matrix(1,0,0,1,1160,221.41732283464557) translate(33.99691358024691 19.555555555555557)"/><use xlink:href="#h" transform="matrix(1,0,0,1,1160,221.41732283464557) translate(5.75 48.88888888888889)"/><path d="M1085.94 351.42c2.24 0 4.06 1.8 4.06 3.96v112.08c0 2.16-1.82 3.96-4.06 3.96h-61.88c-2.24 0-4.06-1.8-4.06-3.96V355.38c0-2.16 1.82-3.96 4.06-3.96zm-60.48 114.6h59.08v-109.2h-59.08zm6.72-96.84v-5.52h45.64v5.52zm0 11.64v-5.52h45.64v5.52zm0 23.88v-5.52h45.64v5.52zm0-11.88v-5.4h45.64v5.4z" stroke="#000" stroke-opacity="0" fill="#232f3d"/><use xlink:href="#l" transform="matrix(1,0,0,1,990,480.4173228346456) translate(27.9820987654321 16.177777777777777)"/><use xlink:href="#m" transform="matrix(1,0,0,1,990,480.4173228346456) translate(15.062345679012338 40.44444444444444)"/><path d="M1085.94 111.42c2.24 0 4.06 1.8 4.06 3.96v112.08c0 2.16-1.82 3.96-4.06 3.96h-61.88c-2.24 0-4.06-1.8-4.06-3.96V115.38c0-2.16 1.82-3.96 4.06-3.96zm-60.48 114.6h59.08v-109.2h-59.08zm6.72-96.84v-5.52h45.64v5.52zm0 11.64v-5.52h45.64v5.52zm0 23.88v-5.52h45.64v5.52zm0-11.88v-5.4h45.64v5.4z" stroke="#000" stroke-opacity="0" fill="#232f3d"/><use xlink:href="#n" transform="matrix(1,0,0,1,990,240.41732283464557) translate(36.40802469135802 16.177777777777777)"/><use xlink:href="#m" transform="matrix(1,0,0,1,990,240.41732283464557) translate(15.062345679012338 40.44444444444444)"/><path d="M1090.5 171.42h53.73" stroke="#3a414a" fill="none"/><path d="M1090.5 171.92h-.5v-1h.5z" stroke="#3a414a" stroke-width=".05" fill="#3a414a"/><path d="M1159 171.42l-14.27 4.63v-9.27z" stroke="#3a414a" fill="#3a414a"/><path d="M1090.5 411.42h53.73" stroke="#3a414a" fill="none"/><path d="M1090.5 411.92h-.5v-1h.5z" stroke="#3a414a" stroke-width=".05" fill="#3a414a"/><path d="M1159 411.42l-14.27 4.63v-9.27z" stroke="#3a414a" fill="#3a414a"/><path d="M1085.94 591.42c2.24 0 4.06 1.8 4.06 3.96v112.08c0 2.16-1.82 3.96-4.06 3.96h-61.88c-2.24 0-4.06-1.8-4.06-3.96V595.38c0-2.16 1.82-3.96 4.06-3.96zm-60.48 114.6h59.08v-109.2h-59.08zm6.72-96.84v-5.52h45.64v5.52zm0 11.64v-5.52h45.64v5.52zm0 23.88v-5.52h45.64v5.52zm0-11.88v-5.4h45.64v5.4z" stroke="#000" stroke-opacity="0" fill="#232f3d"/><use xlink:href="#o" transform="matrix(1,0,0,1,990,720.4173228346456) translate(27.42037037037037 16.177777777777777)"/><use xlink:href="#p" transform="matrix(1,0,0,1,990,720.4173228346456) translate(10.568518518518516 40.44444444444444)"/><path d="M1085.94 831.42c2.24 0 4.06 1.8 4.06 3.96v112.08c0 2.16-1.82 3.96-4.06 3.96h-61.88c-2.24 0-4.06-1.8-4.06-3.96V835.38c0-2.16 1.82-3.96 4.06-3.96zm-60.48 114.6h59.08v-109.2h-59.08zm6.72-96.84v-5.52h45.64v5.52zm0 11.64v-5.52h45.64v5.52zm0 23.88v-5.52h45.64v5.52zm0-11.88v-5.4h45.64v5.4z" stroke="#000" stroke-opacity="0" fill="#232f3d"/><use xlink:href="#o" transform="matrix(1,0,0,1,990,960.4173228346456) translate(27.42037037037037 16.177777777777777)"/><use xlink:href="#q" transform="matrix(1,0,0,1,990,960.4173228346456) translate(-0.694135802469134 40.44444444444444)"/><path d="M1085.94 1071.42c2.24 0 4.06 1.8 4.06 3.96v112.08c0 2.16-1.82 3.96-4.06 3.96h-61.88c-2.24 0-4.06-1.8-4.06-3.96v-112.08c0-2.16 1.82-3.96 4.06-3.96zm-60.48 114.6h59.08v-109.2h-59.08zm6.72-96.84v-5.52h45.64v5.52zm0 11.64v-5.52h45.64v5.52zm0 23.88v-5.52h45.64v5.52zm0-11.88v-5.4h45.64v5.4z" stroke="#000" stroke-opacity="0" fill="#232f3d"/><use xlink:href="#o" transform="matrix(1,0,0,1,990,1200.4173228346456) translate(27.42037037037037 16.177777777777777)"/><use xlink:href="#r" transform="matrix(1,0,0,1,990,1200.4173228346456) translate(37.5033950617284 40.44444444444444)"/><path d="M1090.5 651.42h53.73" stroke="#3a414a" fill="none"/><path d="M1090.5 651.92h-.5v-1h.5z" stroke="#3a414a" stroke-width=".05" fill="#3a414a"/><path d="M1159 651.42l-14.27 4.63v-9.27z" stroke="#3a414a" fill="#3a414a"/><path d="M1090.5 891.42h53.73" stroke="#3a414a" fill="none"/><path d="M1090.5 891.92h-.5v-1h.5z" stroke="#3a414a" stroke-width=".05" fill="#3a414a"/><path d="M1159 891.42l-14.27 4.63v-9.27z" stroke="#3a414a" fill="#3a414a"/><path d="M1090.5 1131.42h53.73" stroke="#3a414a" fill="none"/><path d="M1090.5 1131.92h-.5v-1h.5z" stroke="#3a414a" stroke-width=".05" fill="#3a414a"/><path d="M1159 1131.42l-14.27 4.63v-9.27z" stroke="#3a414a" fill="#3a414a"/><g stroke="#3a414a"><path d="M1540 516.63c0-24.97 40.3-45.2 90-45.2s90 20.23 90 45.2v361.7c0 24.97-40.3 45.2-90 45.2s-90-20.23-90-45.2z" fill="#fff"/><path d="M1720 516.63c0 24.97-40.3 45.2-90 45.2s-90-20.23-90-45.2" fill="none"/></g><use xlink:href="#s" transform="matrix(6.123233995736766e-17,-1,1,6.123233995736766e-17,1545,918.5433070866138) translate(89.95061728395065 93.97222222222221)"/><use xlink:href="#t" transform="matrix(6.123233995736766e-17,-1,1,6.123233995736766e-17,1545,918.5433070866138) translate(196.98765432098764 93.97222222222221)"/><path d="M1377.88 191.42H1464a6 6 0 0 1 6 6v340a6 6 0 0 0 6 6h47.12" stroke="#3a414a" fill="none"/><path d="M1363.12 191.42l14.26-4.64v9.27zM1537.88 543.43l-14.26 4.64v-9.27z" stroke="#3a414a" fill="#3a414a"/><path d="M1377.88 431.42H1424a6 6 0 0 1 6 6v166a6 6 0 0 0 6 6h87.12" stroke="#3a414a" fill="none"/><path d="M1363.12 431.42l14.26-4.64v9.27zM1537.88 609.42l-14.26 4.63v-9.27z" stroke="#3a414a" fill="#3a414a"/><path d="M1377.88 671.42h145.24" stroke="#3a414a" fill="none"/><path d="M1363.12 671.42l14.26-4.64v9.27zM1537.88 671.42l-14.27 4.63.02-9.27z" stroke="#3a414a" fill="#3a414a"/><path d="M1377.88 911.42H1424a6 6 0 0 0 6-6v-166a6 6 0 0 1 6-6h87.12" stroke="#3a414a" fill="none"/><path d="M1363.12 911.42l14.26-4.64v9.27zM1537.88 733.42l-14.26 4.63v-9.27z" stroke="#3a414a" fill="#3a414a"/><path d="M1377.88 1150.7H1484a6 6 0 0 0 6-6V864.83a6 6 0 0 1 6-6h27.12" stroke="#3a414a" fill="none"/><path d="M1363.12 1150.7l14.26-4.63v9.27zM1537.88 858.82l-14.26 4.63v-9.27z" stroke="#3a414a" fill="#3a414a"/><path d="M1440 342.22c0-.43.42-.8.9-.8h58.2c.48 0 .9.37.9.8v31.97c0 .43-.42.8-.9.8h-58.2c-.48 0-.9-.37-.9-.8zm30 20.32l25.02-18.64h-50.04zm-8.04-2.82l-16.98 12.8h50.04l-16.98-12.8-8.04 6zm-2.16-1.58l-17.1-12.73V371zm20.4 0l17.1 12.86v-25.6zM1400 520.8c0-.43.42-.8.9-.8h58.2c.48 0 .9.37.9.8v31.98c0 .43-.42.8-.9.8h-58.2c-.48 0-.9-.37-.9-.8zm30 20.32l25.02-18.63h-50.04zm-8.04-2.82l-16.98 12.8h50.04l-16.98-12.8-8.04 6zm-2.16-1.58L1402.7 524v25.6zm20.4 0l17.1 12.87V524zM1420 655.43c0-.43.42-.8.9-.8h58.2c.48 0 .9.37.9.8v31.97c0 .44-.42.8-.9.8h-58.2c-.48 0-.9-.36-.9-.8zm30 20.32l25.02-18.64h-50.04zm-8.04-2.82l-16.98 12.8h50.04l-16.98-12.8-8.04 6zm-2.16-1.58l-17.1-12.73v25.6zm20.4 0l17.1 12.86v-25.58zM1400 790.06c0-.44.42-.8.9-.8h58.2c.48 0 .9.36.9.8v31.97c0 .44-.42.8-.9.8h-58.2c-.48 0-.9-.37-.9-.8zm30 20.32l25.02-18.64h-50.04zm-8.04-2.83l-16.98 12.8h50.04l-16.98-12.8-8.04 6.02zm-2.16-1.57l-17.1-12.73v25.6zm20.4 0l17.1 12.86v-25.6zM1460 1000.8c0-.43.42-.8.9-.8h58.2c.48 0 .9.37.9.8v31.98c0 .43-.42.8-.9.8h-58.2c-.48 0-.9-.37-.9-.8zm30 20.32l25.02-18.63h-50.04zm-8.04-2.82l-16.98 12.8h50.04l-16.98-12.8-8.04 6zm-2.16-1.58l-17.1-12.72v25.6zm20.4 0l17.1 12.87V1004z" stroke="#000" stroke-opacity="0" fill="#242f3e"/><path d="M1481.1 659.33a.25.25 0 0 1 .24.25v299a.25.25 0 0 1-.25.25.25.25 0 0 1-.26-.25v-299a.25.25 0 0 1 .25-.25z" stroke="#3a414a" stroke-width=".5" fill="none"/><path d="M661.5 224.94a.75.75 0 0 1 .75.75v945.57a.75.75 0 0 1-.75.75.75.75 0 0 1-.75-.75V225.7a.75.75 0 0 1 .75-.76z" stroke="#3a414a" stroke-width="1.5" fill="none"/><path d="M460.3 671.42H643.6" stroke="#3a414a" fill="none"/><path d="M460.3 671.92h-.5v-1h.5z" stroke="#3a414a" stroke-width=".05" fill="#3a414a"/><path d="M658.38 671.42l-14.26 4.63v-9.27z" stroke="#3a414a" fill="#3a414a"/><path d="M663.5 264.44h121.25a6 6 0 0 0 6-6V206a6 6 0 0 1 6-6h105.37" stroke="#3a414a" fill="none"/><path d="M660 264.94v-1zm3.5 0h-.5v-1h.5z" stroke="#3a414a" stroke-width=".05" fill="#3a414a"/><path d="M916.88 200l-14.26 4.63v-9.26z" stroke="#3a414a" fill="#3a414a"/><path d="M663.5 440h238.62" stroke="#3a414a" fill="none"/><path d="M660 440.5v-1zm3.5 0h-.5v-1h.5z" stroke="#3a414a" stroke-width=".05" fill="#3a414a"/><path d="M916.88 440l-14.26 4.63v-9.26z" stroke="#3a414a" fill="#3a414a"/><path d="M660 670.92v-3.5a6 6 0 0 1 6-6h236.12M660 670.9v.52" stroke="#3a414a" fill="none"/><path d="M916.88 661.42l-14.26 4.63v-9.27z" stroke="#3a414a" fill="#3a414a"/><path d="M663.5 920h238.62" stroke="#3a414a" fill="none"/><path d="M660 920.5v-1zm3.5 0h-.5v-1h.5z" stroke="#3a414a" stroke-width=".05" fill="#3a414a"/><path d="M916.88 920l-14.26 4.63v-9.26z" stroke="#3a414a" fill="#3a414a"/><path d="M663.5 1120.83h121.25a6 6 0 0 1 6 6V1154a6 6 0 0 0 6 6h105.37" stroke="#3a414a" fill="none"/><path d="M660 1121.33v-1zm3.5 0h-.5v-1h.5z" stroke="#3a414a" stroke-width=".05" fill="#3a414a"/><path d="M916.88 1160l-14.26 4.63v-9.27z" stroke="#3a414a" fill="#3a414a"/><path d="M13.32 456.62H-91.23c-4.2 0-7.67-3.43-7.67-7.6v-68.48c0-4.2 3.47-7.62 7.67-7.62H13.32c4.2 0 7.67 3.43 7.67 7.62v68.38c0 4.27-3.36 7.7-7.56 7.7h-.12zm-104.43-78.6c-1.45 0-2.65 1.1-2.65 2.52v68.38c0 1.43 1.2 2.6 2.64 2.6H13.43c1.44 0 2.52-1.17 2.52-2.6v-68.38c0-1.43-1.08-2.52-2.52-2.52zM12.1 489.92H-89.98c-4.9-.03-8.87-3.98-8.87-8.9v-11c0-4.9 3.95-8.92 8.87-8.95H12.1c4.92 0 9 4 9 8.95v11c0 4.95-4.08 8.9-9 8.9zm-102.08-23.77c-2.04.03-3.72 1.76-3.72 3.87v11c0 2.12 1.68 3.8 3.72 3.82H12.1c2.16 0 3.84-1.73 3.84-3.86v-10.96c0-2.14-1.68-3.87-3.84-3.87z" stroke="#fff" stroke-opacity="0" fill="#232f3e"/><path d="M8.96 447.08h-95.73c-1.4 0-2.52-1.16-2.52-2.52V384.9c0-1.36 1.12-2.52 2.53-2.52H8.96c1.4 0 2.52 1.16 2.52 2.52v59.66c0 1.36-1.1 2.52-2.52 2.52zm-93.1-5.1H6.33v-54.5h-90.5zM-19.8 470.6H8.95c1.7 0 2.54.86 2.54 2.56v4.77c0 1.7-.85 2.55-2.54 2.55H-19.8c-1.68 0-2.52-.85-2.52-2.55v-4.77c0-1.7.84-2.55 2.53-2.55z" stroke="#fff" stroke-opacity="0" fill="#232f3e"/><g><use xlink:href="#u" transform="matrix(1,0,0,1,-128.90477362204723,498.9173228346456) translate(56.11111111111113 26.666666666666657)"/></g><path d="M-15.33 985.52h-47.15c-9.5 0-15.33-4.9-15.33-12.6v-120.2c0-8.44 6.84-15.4 15.32-15.4h47.15c8.48 0 15.33 6.96 15.33 15.4v11.42h-6.38v-11.4c.08-5.05-3.97-9.05-8.95-9.05h-47.15c-4.98 0-9.03 4-8.95 9.03v120.2c0 4.14 3.1 6.37 8.95 6.37h47.15c6 0 8.95-2.23 8.95-6.38v-7.4H0v7.4c-.16 7.86-6 12.6-15.33 12.6z" stroke="#fff" stroke-opacity="0" fill="#232f3e"/><path d="M-41.98 849.14h17.85v6.3h-17.85v-6.3zM-53.87 857.8c-2.98.04-5.42-2.33-5.45-5.3-.04-2.95 2.35-5.38 5.32-5.4 2.98-.04 5.42 2.33 5.46 5.28v.07c.02 2.94-2.38 5.34-5.33 5.36zm0-6.3c-.48.05-.85.46-.86.94 0 .52.43.95.95.95s.96-.42.96-.95v-.03c-.04-.54-.5-.96-1.05-.9zM-.16 952.82H-6.5V867.3h-68.17v-6.34h71.3c1.8 0 3.2 1.38 3.2 3.13z" stroke="#fff" stroke-opacity="0" fill="#232f3e"/><path d="M-3.36 967.8h-71.3v-6.3H-6.5v-14.6h6.34v17.74c0 1.74-1.4 3.16-3.2 3.16z" stroke="#fff" stroke-opacity="0" fill="#232f3e"/><g><use xlink:href="#v" transform="matrix(1,0,0,1,-107.80954724409446,994.521653543307) translate(29.32407407407409 26.666666666666657)"/></g><path d="M21.5 431.42h153a6 6 0 0 1 6 6v228a6 6 0 0 0 6 6h137.15" stroke="#3a414a" fill="none"/><path d="M21.5 431.92H21v-1h.5z" stroke="#3a414a" stroke-width=".05" fill="#3a414a"/><path d="M338.42 671.42l-14.27 4.63v-9.27z" stroke="#3a414a" fill="#3a414a"/><path d="M.34 911.42H174a6 6 0 0 0 6-6v-228a6 6 0 0 1 6-6h137.65" stroke="#3a414a" fill="none"/><path d="M.35 911.92h-.5v-1h.5z" stroke="#3a414a" stroke-width=".05" fill="#3a414a"/><path d="M338.42 671.42l-14.27 4.63v-9.27z" stroke="#3a414a" fill="#3a414a"/><defs><path fill="#147eba" d="M63-220v92h138v28H63V0H30v-248h175v28H63" id="w"/><path fill="#147eba" d="M114-163C36-179 61-72 57 0H25l-1-190h30c1 12-1 29 2 39 6-27 23-49 58-41v29" id="x"/><path fill="#147eba" d="M100-194c62-1 85 37 85 99 1 63-27 99-86 99S16-35 15-95c0-66 28-99 85-99zM99-20c44 1 53-31 53-75 0-43-8-75-51-75s-53 32-53 75 10 74 51 75" id="y"/><path fill="#147eba" d="M117-194c89-4 53 116 60 194h-32v-121c0-31-8-49-39-48C34-167 62-67 57 0H25l-1-190h30c1 10-1 24 2 32 11-22 29-35 61-36" id="z"/><path fill="#147eba" d="M59-47c-2 24 18 29 38 22v24C64 9 27 4 27-40v-127H5v-23h24l9-43h21v43h35v23H59v120" id="A"/><path fill="#147eba" d="M100-194c63 0 86 42 84 106H49c0 40 14 67 53 68 26 1 43-12 49-29l28 8c-11 28-37 45-77 45C44 4 14-33 15-96c1-61 26-98 85-98zm52 81c6-60-76-77-97-28-3 7-6 17-6 28h103" id="B"/><path fill="#147eba" d="M85-194c31 0 48 13 60 33l-1-100h32l1 261h-30c-2-10 0-23-3-31C134-8 116 4 85 4 32 4 16-35 15-94c0-66 23-100 70-100zm9 24c-40 0-46 34-46 75 0 40 6 74 45 74 42 0 51-32 51-76 0-42-9-74-50-73" id="C"/><g id="b"><use transform="matrix(0.09320987654320984,0,0,0.09320987654320984,0,0)" xlink:href="#w"/><use transform="matrix(0.09320987654320984,0,0,0.09320987654320984,20.412962962962954,0)" xlink:href="#x"/><use transform="matrix(0.09320987654320984,0,0,0.09320987654320984,31.504938271604924,0)" xlink:href="#y"/><use transform="matrix(0.09320987654320984,0,0,0.09320987654320984,50.14691358024689,0)" xlink:href="#z"/><use transform="matrix(0.09320987654320984,0,0,0.09320987654320984,68.78888888888886,0)" xlink:href="#A"/><use transform="matrix(0.09320987654320984,0,0,0.09320987654320984,78.10987654320985,0)" xlink:href="#B"/><use transform="matrix(0.09320987654320984,0,0,0.09320987654320984,96.75185185185182,0)" xlink:href="#z"/><use transform="matrix(0.09320987654320984,0,0,0.09320987654320984,115.3938271604938,0)" xlink:href="#C"/></g><path fill="#147eba" d="M160-131c35 5 61 23 61 61C221 17 115-2 30 0v-248c76 3 177-17 177 60 0 33-19 50-47 57zm-97-11c50-1 110 9 110-42 0-47-63-36-110-37v79zm0 115c55-2 124 14 124-45 0-56-70-42-124-44v89" id="D"/><path fill="#147eba" d="M141-36C126-15 110 5 73 4 37 3 15-17 15-53c-1-64 63-63 125-63 3-35-9-54-41-54-24 1-41 7-42 31l-33-3c5-37 33-52 76-52 45 0 72 20 72 64v82c-1 20 7 32 28 27v20c-31 9-61-2-59-35zM48-53c0 20 12 33 32 33 41-3 63-29 60-74-43 2-92-5-92 41" id="E"/><path fill="#147eba" d="M96-169c-40 0-48 33-48 73s9 75 48 75c24 0 41-14 43-38l32 2c-6 37-31 61-74 61-59 0-76-41-82-99-10-93 101-131 147-64 4 7 5 14 7 22l-32 3c-4-21-16-35-41-35" id="F"/><path fill="#147eba" d="M143 0L79-87 56-68V0H24v-261h32v163l83-92h37l-77 82L181 0h-38" id="G"/><g id="d"><use transform="matrix(0.1055555555555555,0,0,0.1055555555555555,0,0)" xlink:href="#D"/><use transform="matrix(0.1055555555555555,0,0,0.1055555555555555,25.33333333333332,0)" xlink:href="#E"/><use transform="matrix(0.1055555555555555,0,0,0.1055555555555555,46.44444444444442,0)" xlink:href="#F"/><use transform="matrix(0.1055555555555555,0,0,0.1055555555555555,65.44444444444441,0)" xlink:href="#G"/><use transform="matrix(0.1055555555555555,0,0,0.1055555555555555,84.4444444444444,0)" xlink:href="#B"/><use transform="matrix(0.1055555555555555,0,0,0.1055555555555555,105.5555555555555,0)" xlink:href="#z"/><use transform="matrix(0.1055555555555555,0,0,0.1055555555555555,126.6666666666666,0)" xlink:href="#C"/></g><path d="M205 0l-28-72H64L36 0H1l101-248h38L239 0h-34zm-38-99l-47-123c-12 45-31 82-46 123h93" id="H"/><path d="M30-248c87 1 191-15 191 75 0 78-77 80-158 76V0H30v-248zm33 125c57 0 124 11 124-50 0-59-68-47-124-48v98" id="I"/><path d="M33 0v-248h34V0H33" id="J"/><g id="e"><use transform="matrix(0.0685185185185185,0,0,0.0685185185185185,0,0)" xlink:href="#H"/><use transform="matrix(0.0685185185185185,0,0,0.0685185185185185,16.444444444444443,0)" xlink:href="#I"/><use transform="matrix(0.0685185185185185,0,0,0.0685185185185185,32.888888888888886,0)" xlink:href="#J"/></g><path d="M141-36C126-15 110 5 73 4 37 3 15-17 15-53c-1-64 63-63 125-63 3-35-9-54-41-54-24 1-41 7-42 31l-33-3c5-37 33-52 76-52 45 0 72 20 72 64v82c-1 20 7 32 28 27v20c-31 9-61-2-59-35zM48-53c0 20 12 33 32 33 41-3 63-29 60-74-43 2-92-5-92 41zm25-158c8-23 27-35 38-54h36v5l-58 49H73" id="K"/><path d="M59-47c-2 24 18 29 38 22v24C64 9 27 4 27-40v-127H5v-23h24l9-43h21v43h35v23H59v120" id="L"/><path d="M24-231v-30h32v30H24zM-9 49c24 4 33-6 33-30v-209h32V24c2 40-23 58-65 49V49" id="M"/><path d="M114-163C36-179 61-72 57 0H25l-1-190h30c1 12-1 29 2 39 6-27 23-49 58-41v29" id="N"/><path d="M100-194c62-1 85 37 85 99 1 63-27 99-86 99S16-35 15-95c0-66 28-99 85-99zM99-20c44 1 53-31 53-75 0-43-8-75-51-75s-53 32-53 75 10 74 51 75zM76-211c8-23 27-35 38-54h36v5l-58 49H76" id="O"/><g id="f"><use transform="matrix(0.0685185185185185,0,0,0.0685185185185185,0,0)" xlink:href="#K"/><use transform="matrix(0.0685185185185185,0,0,0.0685185185185185,13.7037037037037,0)" xlink:href="#L"/><use transform="matrix(0.0685185185185185,0,0,0.0685185185185185,20.555555555555554,0)" xlink:href="#M"/><use transform="matrix(0.0685185185185185,0,0,0.0685185185185185,25.96851851851851,0)" xlink:href="#K"/><use transform="matrix(0.0685185185185185,0,0,0.0685185185185185,39.67222222222221,0)" xlink:href="#N"/><use transform="matrix(0.0685185185185185,0,0,0.0685185185185185,47.825925925925915,0)" xlink:href="#O"/></g><path fill="#3a414a" d="M185-189c-5-48-123-54-124 2 14 75 158 14 163 119 3 78-121 87-175 55-17-10-28-26-33-46l33-7c5 56 141 63 141-1 0-78-155-14-162-118-5-82 145-84 179-34 5 7 8 16 11 25" id="P"/><path fill="#3a414a" d="M140-251c81 0 123 46 123 126C263-53 228-8 163 1c7 30 30 48 69 40v23c-55 16-95-15-103-61C56-3 17-48 17-125c0-80 42-126 123-126zm0 227c63 0 89-41 89-101s-29-99-89-99c-61 0-89 39-89 99S79-25 140-24" id="Q"/><path fill="#3a414a" d="M30 0v-248h33v221h125V0H30" id="R"/><g id="g"><use transform="matrix(0.06790123456790123,0,0,0.06790123456790123,0,0)" xlink:href="#P"/><use transform="matrix(0.06790123456790123,0,0,0.06790123456790123,16.296296296296294,0)" xlink:href="#Q"/><use transform="matrix(0.06790123456790123,0,0,0.06790123456790123,35.30864197530864,0)" xlink:href="#R"/></g><path fill="#3a414a" d="M141-36C126-15 110 5 73 4 37 3 15-17 15-53c-1-64 63-63 125-63 3-35-9-54-41-54-24 1-41 7-42 31l-33-3c5-37 33-52 76-52 45 0 72 20 72 64v82c-1 20 7 32 28 27v20c-31 9-61-2-59-35zM48-53c0 20 12 33 32 33 41-3 63-29 60-74-43 2-92-5-92 41" id="S"/><path fill="#3a414a" d="M85-194c31 0 48 13 60 33l-1-100h32l1 261h-30c-2-10 0-23-3-31C134-8 116 4 85 4 32 4 16-35 15-94c0-66 23-100 70-100zm9 24c-40 0-46 34-46 75 0 40 6 74 45 74 42 0 51-32 51-76 0-42-9-74-50-73" id="T"/><path fill="#3a414a" d="M59-47c-2 24 18 29 38 22v24C64 9 27 4 27-40v-127H5v-23h24l9-43h21v43h35v23H59v120" id="U"/><path fill="#3a414a" d="M115-194c53 0 69 39 70 98 0 66-23 100-70 100C84 3 66-7 56-30L54 0H23l1-261h32v101c10-23 28-34 59-34zm-8 174c40 0 45-34 45-75 0-40-5-75-45-74-42 0-51 32-51 76 0 43 10 73 51 73" id="V"/><path fill="#3a414a" d="M141-36C126-15 110 5 73 4 37 3 15-17 15-53c-1-64 63-63 125-63 3-35-9-54-41-54-24 1-41 7-42 31l-33-3c5-37 33-52 76-52 45 0 72 20 72 64v82c-1 20 7 32 28 27v20c-31 9-61-2-59-35zM48-53c0 20 12 33 32 33 41-3 63-29 60-74-43 2-92-5-92 41zm25-158c8-23 27-35 38-54h36v5l-58 49H73" id="W"/><path fill="#3a414a" d="M9 0v-24l116-142H16v-24h144v24L44-24h123V0H9" id="X"/><path fill="#3a414a" d="M24-231v-30h32v30H24zM24 0v-190h32V0H24" id="Y"/><path fill="#3a414a" d="M135-143c-3-34-86-38-87 0 15 53 115 12 119 90S17 21 10-45l28-5c4 36 97 45 98 0-10-56-113-15-118-90-4-57 82-63 122-42 12 7 21 19 24 35" id="Z"/><g id="h"><use transform="matrix(0.06790123456790123,0,0,0.06790123456790123,0,0)" xlink:href="#S"/><use transform="matrix(0.06790123456790123,0,0,0.06790123456790123,13.580246913580247,0)" xlink:href="#T"/><use transform="matrix(0.06790123456790123,0,0,0.06790123456790123,27.160493827160494,0)" xlink:href="#S"/><use transform="matrix(0.06790123456790123,0,0,0.06790123456790123,40.74074074074074,0)" xlink:href="#U"/><use transform="matrix(0.06790123456790123,0,0,0.06790123456790123,47.53086419753086,0)" xlink:href="#V"/><use transform="matrix(0.06790123456790123,0,0,0.06790123456790123,61.11111111111111,0)" xlink:href="#W"/><use transform="matrix(0.06790123456790123,0,0,0.06790123456790123,74.69135802469135,0)" xlink:href="#X"/><use transform="matrix(0.06790123456790123,0,0,0.06790123456790123,86.91358024691357,0)" xlink:href="#Y"/><use transform="matrix(0.06790123456790123,0,0,0.06790123456790123,92.27777777777777,0)" xlink:href="#Z"/></g><path fill="#3a414a" d="M240 0l2-218c-23 76-54 145-80 218h-23L58-218 59 0H30v-248h44l77 211c21-75 51-140 76-211h43V0h-30" id="aa"/><path fill="#3a414a" d="M100-194c62-1 85 37 85 99 1 63-27 99-86 99S16-35 15-95c0-66 28-99 85-99zM99-20c44 1 53-31 53-75 0-43-8-75-51-75s-53 32-53 75 10 74 51 75" id="ab"/><path fill="#3a414a" d="M117-194c89-4 53 116 60 194h-32v-121c0-31-8-49-39-48C34-167 62-67 57 0H25l-1-190h30c1 10-1 24 2 32 11-22 29-35 61-36" id="ac"/><path fill="#3a414a" d="M177-190C167-65 218 103 67 71c-23-6-38-20-44-43l32-5c15 47 100 32 89-28v-30C133-14 115 1 83 1 29 1 15-40 15-95c0-56 16-97 71-98 29-1 48 16 59 35 1-10 0-23 2-32h30zM94-22c36 0 50-32 50-73 0-42-14-75-50-75-39 0-46 34-46 75s6 73 46 73" id="ad"/><path fill="#3a414a" d="M30-248c118-7 216 8 213 122C240-48 200 0 122 0H30v-248zM63-27c89 8 146-16 146-99s-60-101-146-95v194" id="ae"/><path fill="#3a414a" d="M160-131c35 5 61 23 61 61C221 17 115-2 30 0v-248c76 3 177-17 177 60 0 33-19 50-47 57zm-97-11c50-1 110 9 110-42 0-47-63-36-110-37v79zm0 115c55-2 124 14 124-45 0-56-70-42-124-44v89" id="af"/><g id="i"><use transform="matrix(0.06790123456790123,0,0,0.06790123456790123,0,0)" xlink:href="#aa"/><use transform="matrix(0.06790123456790123,0,0,0.06790123456790123,20.30246913580247,0)" xlink:href="#ab"/><use transform="matrix(0.06790123456790123,0,0,0.06790123456790123,33.882716049382715,0)" xlink:href="#ac"/><use transform="matrix(0.06790123456790123,0,0,0.06790123456790123,47.46296296296296,0)" xlink:href="#ad"/><use transform="matrix(0.06790123456790123,0,0,0.06790123456790123,61.04320987654321,0)" xlink:href="#ab"/><use transform="matrix(0.06790123456790123,0,0,0.06790123456790123,74.62345679012346,0)" xlink:href="#ae"/><use transform="matrix(0.06790123456790123,0,0,0.06790123456790123,92.20987654320987,0)" xlink:href="#af"/></g><path fill="#3a414a" d="M233-177c-1 41-23 64-60 70L243 0h-38l-65-103H63V0H30v-248c88 3 205-21 203 71zM63-129c60-2 137 13 137-47 0-61-80-42-137-45v92" id="ag"/><path fill="#3a414a" d="M100-194c63 0 86 42 84 106H49c0 40 14 67 53 68 26 1 43-12 49-29l28 8c-11 28-37 45-77 45C44 4 14-33 15-96c1-61 26-98 85-98zm52 81c6-60-76-77-97-28-3 7-6 17-6 28h103" id="ah"/><g id="j"><use transform="matrix(0.06790123456790123,0,0,0.06790123456790123,0,0)" xlink:href="#ag"/><use transform="matrix(0.06790123456790123,0,0,0.06790123456790123,17.586419753086417,0)" xlink:href="#ah"/><use transform="matrix(0.06790123456790123,0,0,0.06790123456790123,31.166666666666664,0)" xlink:href="#T"/><use transform="matrix(0.06790123456790123,0,0,0.06790123456790123,44.74691358024691,0)" xlink:href="#Y"/><use transform="matrix(0.06790123456790123,0,0,0.06790123456790123,50.11111111111111,0)" xlink:href="#Z"/></g><path fill="#3a414a" d="M30-248c87 1 191-15 191 75 0 78-77 80-158 76V0H30v-248zm33 125c57 0 124 11 124-50 0-59-68-47-124-48v98" id="ai"/><path fill="#3a414a" d="M114-163C36-179 61-72 57 0H25l-1-190h30c1 12-1 29 2 39 6-27 23-49 58-41v29" id="aj"/><g id="k"><use transform="matrix(0.06790123456790123,0,0,0.06790123456790123,0,0)" xlink:href="#ai"/><use transform="matrix(0.06790123456790123,0,0,0.06790123456790123,16.296296296296294,0)" xlink:href="#ab"/><use transform="matrix(0.06790123456790123,0,0,0.06790123456790123,29.87654320987654,0)" xlink:href="#Z"/><use transform="matrix(0.06790123456790123,0,0,0.06790123456790123,42.09876543209876,0)" xlink:href="#U"/><use transform="matrix(0.06790123456790123,0,0,0.06790123456790123,48.888888888888886,0)" xlink:href="#ad"/><use transform="matrix(0.06790123456790123,0,0,0.06790123456790123,62.46913580246913,0)" xlink:href="#aj"/><use transform="matrix(0.06790123456790123,0,0,0.06790123456790123,70.54938271604938,0)" xlink:href="#ah"/><use transform="matrix(0.06790123456790123,0,0,0.06790123456790123,84.12962962962962,0)" xlink:href="#P"/><use transform="matrix(0.06790123456790123,0,0,0.06790123456790123,100.42592592592591,0)" xlink:href="#Q"/><use transform="matrix(0.06790123456790123,0,0,0.06790123456790123,119.43827160493825,0)" xlink:href="#R"/></g><path d="M30-248c118-7 216 8 213 122C240-48 200 0 122 0H30v-248zM63-27c89 8 146-16 146-99s-60-101-146-95v194" id="ak"/><path d="M100-194c62-1 85 37 85 99 1 63-27 99-86 99S16-35 15-95c0-66 28-99 85-99zM99-20c44 1 53-31 53-75 0-43-8-75-51-75s-53 32-53 75 10 74 51 75" id="al"/><path d="M24 0v-261h32V0H24" id="am"/><path d="M177-190C167-65 218 103 67 71c-23-6-38-20-44-43l32-5c15 47 100 32 89-28v-30C133-14 115 1 83 1 29 1 15-40 15-95c0-56 16-97 71-98 29-1 48 16 59 35 1-10 0-23 2-32h30zM94-22c36 0 50-32 50-73 0-42-14-75-50-75-39 0-46 34-46 75s6 73 46 73" id="an"/><path d="M9 0v-24l116-142H16v-24h144v24L44-24h123V0H9" id="ao"/><g id="l"><use transform="matrix(0.056172839506172835,0,0,0.056172839506172835,0,0)" xlink:href="#ak"/><use transform="matrix(0.056172839506172835,0,0,0.056172839506172835,14.548765432098763,0)" xlink:href="#al"/><use transform="matrix(0.056172839506172835,0,0,0.056172839506172835,25.78333333333333,0)" xlink:href="#am"/><use transform="matrix(0.056172839506172835,0,0,0.056172839506172835,30.220987654320986,0)" xlink:href="#an"/><use transform="matrix(0.056172839506172835,0,0,0.056172839506172835,41.45555555555555,0)" xlink:href="#al"/><use transform="matrix(0.056172839506172835,0,0,0.056172839506172835,52.69012345679012,0)" xlink:href="#ao"/><use transform="matrix(0.056172839506172835,0,0,0.056172839506172835,62.80123456790123,0)" xlink:href="#O"/></g><path d="M210-169c-67 3-38 105-44 169h-31v-121c0-29-5-50-35-48C34-165 62-65 56 0H25l-1-190h30c1 10-1 24 2 32 10-44 99-50 107 0 11-21 27-35 58-36 85-2 47 119 55 194h-31v-121c0-29-5-49-35-48" id="ap"/><path d="M100-194c63 0 86 42 84 106H49c0 40 14 67 53 68 26 1 43-12 49-29l28 8c-11 28-37 45-77 45C44 4 14-33 15-96c1-61 26-98 85-98zm52 81c6-60-76-77-97-28-3 7-6 17-6 28h103" id="aq"/><path d="M117-194c89-4 53 116 60 194h-32v-121c0-31-8-49-39-48C34-167 62-67 57 0H25l-1-190h30c1 10-1 24 2 32 11-22 29-35 61-36" id="ar"/><path d="M85-194c31 0 48 13 60 33l-1-100h32l1 261h-30c-2-10 0-23-3-31C134-8 116 4 85 4 32 4 16-35 15-94c0-66 23-100 70-100zm9 24c-40 0-46 34-46 75 0 40 6 74 45 74 42 0 51-32 51-76 0-42-9-74-50-73" id="as"/><path d="M135-143c-3-34-86-38-87 0 15 53 115 12 119 90S17 21 10-45l28-5c4 36 97 45 98 0-10-56-113-15-118-90-4-57 82-63 122-42 12 7 21 19 24 35" id="at"/><g id="m"><use transform="matrix(0.056172839506172835,0,0,0.056172839506172835,0,0)" xlink:href="#ap"/><use transform="matrix(0.056172839506172835,0,0,0.056172839506172835,16.795679012345676,0)" xlink:href="#aq"/><use transform="matrix(0.056172839506172835,0,0,0.056172839506172835,28.030246913580243,0)" xlink:href="#ar"/><use transform="matrix(0.056172839506172835,0,0,0.056172839506172835,39.26481481481481,0)" xlink:href="#aq"/><use transform="matrix(0.056172839506172835,0,0,0.056172839506172835,50.49938271604938,0)" xlink:href="#as"/><use transform="matrix(0.056172839506172835,0,0,0.056172839506172835,61.73395061728396,0)" xlink:href="#ao"/><use transform="matrix(0.056172839506172835,0,0,0.056172839506172835,71.84506172839507,0)" xlink:href="#at"/><use transform="matrix(0.056172839506172835,0,0,0.056172839506172835,81.95617283950618,0)" xlink:href="#aq"/><use transform="matrix(0.056172839506172835,0,0,0.056172839506172835,93.19074074074075,0)" xlink:href="#N"/></g><path d="M150-269v-32h29v32h-29zm-69 0v-32h29v32H81zM232-93c-1 65-40 97-104 97C67 4 28-28 28-90v-158h33c8 89-33 224 67 224 102 0 64-133 71-224h33v155" id="au"/><path d="M179-190L93 31C79 59 56 82 12 73V49c39 6 53-20 64-50L1-190h34L92-34l54-156h33" id="av"/><path d="M101-234c-31-9-42 10-38 44h38v23H63V0H32v-167H5v-23h27c-7-52 17-82 69-68v24" id="aw"/><path d="M100-194c63 0 86 42 84 106H49c0 40 14 67 53 68 26 1 43-12 49-29l28 8c-11 28-37 45-77 45C44 4 14-33 15-96c1-61 26-98 85-98zm52 81c6-60-76-77-97-28-3 7-6 17-6 28h103zm-74-98c8-23 27-35 38-54h36v5l-58 49H78" id="ax"/><g id="n"><use transform="matrix(0.056172839506172835,0,0,0.056172839506172835,0,0)" xlink:href="#au"/><use transform="matrix(0.056172839506172835,0,0,0.056172839506172835,14.548765432098763,0)" xlink:href="#an"/><use transform="matrix(0.056172839506172835,0,0,0.056172839506172835,25.78333333333333,0)" xlink:href="#av"/><use transform="matrix(0.056172839506172835,0,0,0.056172839506172835,35.894444444444446,0)" xlink:href="#aw"/><use transform="matrix(0.056172839506172835,0,0,0.056172839506172835,41.51172839506173,0)" xlink:href="#ax"/><use transform="matrix(0.056172839506172835,0,0,0.056172839506172835,52.74629629629629,0)" xlink:href="#am"/></g><path d="M212-179c-10-28-35-45-73-45-59 0-87 40-87 99 0 60 29 101 89 101 43 0 62-24 78-52l27 14C228-24 195 4 139 4 59 4 22-46 18-125c-6-104 99-153 187-111 19 9 31 26 39 46" id="ay"/><path d="M141-36C126-15 110 5 73 4 37 3 15-17 15-53c-1-64 63-63 125-63 3-35-9-54-41-54-24 1-41 7-42 31l-33-3c5-37 33-52 76-52 45 0 72 20 72 64v82c-1 20 7 32 28 27v20c-31 9-61-2-59-35zM48-53c0 20 12 33 32 33 41-3 63-29 60-74-43 2-92-5-92 41" id="az"/><g id="o"><use transform="matrix(0.056172839506172835,0,0,0.056172839506172835,0,0)" xlink:href="#ay"/><use transform="matrix(0.056172839506172835,0,0,0.056172839506172835,14.548765432098763,0)" xlink:href="#at"/><use transform="matrix(0.056172839506172835,0,0,0.056172839506172835,24.659876543209876,0)" xlink:href="#al"/><use transform="matrix(0.056172839506172835,0,0,0.056172839506172835,35.894444444444446,0)" xlink:href="#ap"/><use transform="matrix(0.056172839506172835,0,0,0.056172839506172835,52.69012345679012,0)" xlink:href="#az"/><use transform="matrix(0.056172839506172835,0,0,0.056172839506172835,63.92469135802469,0)" xlink:href="#an"/></g><path d="M100-194c62-1 85 37 85 99 1 63-27 99-86 99S16-35 15-95c0-66 28-99 85-99zM99-20c44 1 53-31 53-75 0-43-8-75-51-75s-53 32-53 75 10 74 51 75zM51-211c8-23 27-35 38-54h36v5l-58 49H51zm61 0c8-23 27-35 38-54h36v5l-58 49h-16" id="aA"/><g id="p"><use transform="matrix(0.056172839506172835,0,0,0.056172839506172835,0,0)" xlink:href="#ap"/><use transform="matrix(0.056172839506172835,0,0,0.056172839506172835,16.795679012345676,0)" xlink:href="#aq"/><use transform="matrix(0.056172839506172835,0,0,0.056172839506172835,28.030246913580243,0)" xlink:href="#ar"/><use transform="matrix(0.056172839506172835,0,0,0.056172839506172835,39.26481481481481,0)" xlink:href="#aq"/><use transform="matrix(0.056172839506172835,0,0,0.056172839506172835,50.49938271604938,0)" xlink:href="#as"/><use transform="matrix(0.056172839506172835,0,0,0.056172839506172835,61.73395061728396,0)" xlink:href="#ao"/><use transform="matrix(0.056172839506172835,0,0,0.056172839506172835,71.84506172839507,0)" xlink:href="#at"/><use transform="matrix(0.056172839506172835,0,0,0.056172839506172835,81.95617283950618,0)" xlink:href="#aq"/><use transform="matrix(0.056172839506172835,0,0,0.056172839506172835,93.19074074074075,0)" xlink:href="#am"/><use transform="matrix(0.056172839506172835,0,0,0.056172839506172835,97.6283950617284,0)" xlink:href="#aA"/></g><path d="M143 0L79-87 56-68V0H24v-261h32v163l83-92h37l-77 82L181 0h-38" id="aB"/><path d="M100-194c62-1 85 37 85 99 1 63-27 99-86 99S16-35 15-95c0-66 28-99 85-99zM99-20c44 1 53-31 53-75 0-43-8-75-51-75s-53 32-53 75 10 74 51 75zm22-194v-33h29v33h-29zm-69 0v-33h29v33H52" id="aC"/><path d="M108 0H70L1-190h34L89-25l56-165h34" id="aD"/><g id="q"><use transform="matrix(0.056172839506172835,0,0,0.056172839506172835,0,0)" xlink:href="#ar"/><use transform="matrix(0.056172839506172835,0,0,0.056172839506172835,11.234567901234566,0)" xlink:href="#av"/><use transform="matrix(0.056172839506172835,0,0,0.056172839506172835,21.345679012345677,0)" xlink:href="#al"/><use transform="matrix(0.056172839506172835,0,0,0.056172839506172835,32.58024691358024,0)" xlink:href="#ap"/><use transform="matrix(0.056172839506172835,0,0,0.056172839506172835,49.37592592592591,0)" xlink:href="#al"/><use transform="matrix(0.056172839506172835,0,0,0.056172839506172835,60.610493827160475,0)" xlink:href="#ar"/><use transform="matrix(0.056172839506172835,0,0,0.056172839506172835,71.84506172839505,0)" xlink:href="#aB"/><use transform="matrix(0.056172839506172835,0,0,0.056172839506172835,81.95617283950617,0)" xlink:href="#aC"/><use transform="matrix(0.056172839506172835,0,0,0.056172839506172835,93.19074074074074,0)" xlink:href="#aD"/><use transform="matrix(0.056172839506172835,0,0,0.056172839506172835,103.30185185185185,0)" xlink:href="#aq"/><use transform="matrix(0.056172839506172835,0,0,0.056172839506172835,114.53641975308642,0)" xlink:href="#L"/><use transform="matrix(0.056172839506172835,0,0,0.056172839506172835,120.1537037037037,0)" xlink:href="#aA"/></g><g id="r"><use transform="matrix(0.056172839506172835,0,0,0.056172839506172835,0,0)" xlink:href="#aw"/><use transform="matrix(0.056172839506172835,0,0,0.056172839506172835,5.617283950617283,0)" xlink:href="#aq"/><use transform="matrix(0.056172839506172835,0,0,0.056172839506172835,16.851851851851848,0)" xlink:href="#am"/><use transform="matrix(0.056172839506172835,0,0,0.056172839506172835,21.289506172839502,0)" xlink:href="#az"/><use transform="matrix(0.056172839506172835,0,0,0.056172839506172835,32.524074074074065,0)" xlink:href="#as"/><use transform="matrix(0.056172839506172835,0,0,0.056172839506172835,43.758641975308635,0)" xlink:href="#O"/></g><path fill="#3a414a" d="M30 0v-248h187v28H63v79h144v27H63v87h162V0H30" id="aE"/><path fill="#3a414a" d="M108 0H70L1-190h34L89-25l56-165h34" id="aF"/><g id="s"><use transform="matrix(0.10493827160493824,0,0,0.10493827160493824,0,0)" xlink:href="#aE"/><use transform="matrix(0.10493827160493824,0,0,0.10493827160493824,25.185185185185176,0)" xlink:href="#aF"/><use transform="matrix(0.10493827160493824,0,0,0.10493827160493824,44.07407407407406,0)" xlink:href="#ah"/><use transform="matrix(0.10493827160493824,0,0,0.10493827160493824,65.0617283950617,0)" xlink:href="#ac"/><use transform="matrix(0.10493827160493824,0,0,0.10493827160493824,86.04938271604935,0)" xlink:href="#U"/></g><path fill="#3a414a" d="M84 4C-5 8 30-112 23-190h32v120c0 31 7 50 39 49 72-2 45-101 50-169h31l1 190h-30c-1-10 1-25-2-33-11 22-28 36-60 37" id="aG"/><g id="t"><use transform="matrix(0.10493827160493824,0,0,0.10493827160493824,0,0)" xlink:href="#af"/><use transform="matrix(0.10493827160493824,0,0,0.10493827160493824,25.185185185185176,0)" xlink:href="#aG"/><use transform="matrix(0.10493827160493824,0,0,0.10493827160493824,46.17283950617282,0)" xlink:href="#Z"/></g><path fill="#3a414a" d="M266 0h-40l-56-210L115 0H75L2-248h35L96-30l15-64 43-154h32l59 218 59-218h35" id="aH"/><g id="u"><use transform="matrix(0.09259259259259256,0,0,0.09259259259259256,0,0)" xlink:href="#aH"/><use transform="matrix(0.09259259259259256,0,0,0.09259259259259256,30.74074074074073,0)" xlink:href="#ah"/><use transform="matrix(0.09259259259259256,0,0,0.09259259259259256,49.25925925925924,0)" xlink:href="#V"/></g><path fill="#3a414a" d="M24 0v-261h32V0H24" id="aI"/><g id="v"><use transform="matrix(0.09259259259259256,0,0,0.09259259259259256,0,0)" xlink:href="#aa"/><use transform="matrix(0.09259259259259256,0,0,0.09259259259259256,27.685185185185176,0)" xlink:href="#ab"/><use transform="matrix(0.09259259259259256,0,0,0.09259259259259256,46.20370370370369,0)" xlink:href="#V"/><use transform="matrix(0.09259259259259256,0,0,0.09259259259259256,64.7222222222222,0)" xlink:href="#Y"/><use transform="matrix(0.09259259259259256,0,0,0.09259259259259256,72.03703703703701,0)" xlink:href="#aI"/></g></defs></g></svg>